<?xml version="1.0" encoding="utf-8" standalone="no"?>
<!DOCTYPE svg PUBLIC "-//W3C//DTD SVG 1.1//EN"
  "http://www.w3.org/Graphics/SVG/1.1/DTD/svg11.dtd">
<svg xmlns:xlink="http://www.w3.org/1999/xlink" width="460.8pt" height="345.6pt" viewBox="0 0 460.8 345.6" xmlns="http://www.w3.org/2000/svg" version="1.1">
 <metadata>
  <rdf:RDF xmlns:dc="http://purl.org/dc/elements/1.1/" xmlns:cc="http://creativecommons.org/ns#" xmlns:rdf="http://www.w3.org/1999/02/22-rdf-syntax-ns#">
   <cc:Work>
    <dc:type rdf:resource="http://purl.org/dc/dcmitype/StillImage"/>
    <dc:date>2025-12-17T09:46:39.766833</dc:date>
    <dc:format>image/svg+xml</dc:format>
    <dc:creator>
     <cc:Agent>
      <dc:title>Matplotlib v3.9.4, https://matplotlib.org/</dc:title>
     </cc:Agent>
    </dc:creator>
   </cc:Work>
  </rdf:RDF>
 </metadata>
 <defs>
  <style type="text/css">*{stroke-linejoin: round; stroke-linecap: butt}</style>
 </defs>
 <g id="figure_1">
  <g id="patch_1">
   <path d="M 0 345.6 
L 460.8 345.6 
L 460.8 0 
L 0 0 
z
" style="fill: #ffffff"/>
  </g>
  <g id="patch_2">
   <path d="M 76.44 334.8 
L 384.36 334.8 
L 384.36 26.88 
L 76.44 26.88 
z
" style="fill: #ffffff"/>
  </g>
  <g id="pane3d_1">
   <g id="patch_3">
    <path d="M 110.72809 271.776364 
L 203.88616 192.016379 
L 202.259765 39.978106 
L 103.59513 111.195943 
" style="fill: #f2f2f2; opacity: 0.5; stroke: #f2f2f2; stroke-linejoin: miter"/>
   </g>
  </g>
  <g id="pane3d_2">
   <g id="patch_4">
    <path d="M 203.88616 192.016379 
L 354.260962 236.528859 
L 360.912933 79.647116 
L 202.259765 39.978106 
" style="fill: #e6e6e6; opacity: 0.5; stroke: #e6e6e6; stroke-linejoin: miter"/>
   </g>
  </g>
  <g id="pane3d_3">
   <g id="patch_5">
    <path d="M 110.72809 271.776364 
L 269.384565 324.05367 
L 354.260962 236.528859 
L 203.88616 192.016379 
" style="fill: #ececec; opacity: 0.5; stroke: #ececec; stroke-linejoin: miter"/>
   </g>
  </g>
  <g id="grid3d_1">
   <g id="Line3DCollection_1">
    <path d="M 110.72809 271.776364 
L 203.88616 192.016379 
L 202.259765 39.978106 
" style="fill: none; stroke: #b0b0b0; stroke-width: 0.8"/>
    <path d="M 129.736797 278.039733 
L 221.961897 197.366982 
L 221.290028 44.736358 
" style="fill: none; stroke: #b0b0b0; stroke-width: 0.8"/>
    <path d="M 148.972326 284.377839 
L 240.236854 202.776557 
L 240.54128 49.549865 
" style="fill: none; stroke: #b0b0b0; stroke-width: 0.8"/>
    <path d="M 168.438761 290.792029 
L 258.714343 208.246082 
L 260.017395 54.419595 
" style="fill: none; stroke: #b0b0b0; stroke-width: 0.8"/>
    <path d="M 188.140286 297.283682 
L 277.397749 213.776562 
L 279.722335 59.34654 
" style="fill: none; stroke: #b0b0b0; stroke-width: 0.8"/>
    <path d="M 208.081186 303.854208 
L 296.290534 219.36902 
L 299.660155 64.331714 
" style="fill: none; stroke: #b0b0b0; stroke-width: 0.8"/>
    <path d="M 228.265848 310.505054 
L 315.396238 225.024503 
L 319.83501 69.376155 
" style="fill: none; stroke: #b0b0b0; stroke-width: 0.8"/>
    <path d="M 248.698772 317.237702 
L 334.71848 230.744084 
L 340.251151 74.480926 
" style="fill: none; stroke: #b0b0b0; stroke-width: 0.8"/>
    <path d="M 269.384565 324.05367 
L 354.260962 236.528859 
L 360.912933 79.647116 
" style="fill: none; stroke: #b0b0b0; stroke-width: 0.8"/>
   </g>
  </g>
  <g id="grid3d_2">
   <g id="Line3DCollection_2">
    <path d="M 103.59513 111.195943 
L 110.72809 271.776364 
L 269.384565 324.05367 
" style="fill: none; stroke: #b0b0b0; stroke-width: 0.8"/>
    <path d="M 116.850651 101.627879 
L 123.196852 261.100872 
L 280.781634 312.300976 
" style="fill: none; stroke: #b0b0b0; stroke-width: 0.8"/>
    <path d="M 129.8259 92.262121 
L 135.416048 250.639053 
L 291.939532 300.794916 
" style="fill: none; stroke: #b0b0b0; stroke-width: 0.8"/>
    <path d="M 142.529672 83.092319 
L 147.393096 240.384556 
L 302.865709 289.527807 
" style="fill: none; stroke: #b0b0b0; stroke-width: 0.8"/>
    <path d="M 154.970399 74.112386 
L 159.135124 230.331278 
L 313.56731 278.492282 
" style="fill: none; stroke: #b0b0b0; stroke-width: 0.8"/>
    <path d="M 167.156169 65.316488 
L 170.648982 220.473354 
L 324.051189 267.681273 
" style="fill: none; stroke: #b0b0b0; stroke-width: 0.8"/>
    <path d="M 179.094738 56.699023 
L 181.941257 210.805145 
L 334.323921 257.087999 
" style="fill: none; stroke: #b0b0b0; stroke-width: 0.8"/>
    <path d="M 190.793553 48.254616 
L 193.018284 201.321227 
L 344.391824 246.705945 
" style="fill: none; stroke: #b0b0b0; stroke-width: 0.8"/>
    <path d="M 202.259765 39.978106 
L 203.88616 192.016379 
L 354.260962 236.528859 
" style="fill: none; stroke: #b0b0b0; stroke-width: 0.8"/>
   </g>
  </g>
  <g id="grid3d_3">
   <g id="Line3DCollection_3">
    <path d="M 354.894474 221.587952 
L 203.730928 177.50501 
L 110.04995 256.509763 
" style="fill: none; stroke: #b0b0b0; stroke-width: 0.8"/>
    <path d="M 356.18183 191.226614 
L 203.415702 148.037154 
L 108.671141 225.469383 
" style="fill: none; stroke: #b0b0b0; stroke-width: 0.8"/>
    <path d="M 357.49703 160.208625 
L 203.093964 117.960479 
L 107.261452 193.733835 
" style="fill: none; stroke: #b0b0b0; stroke-width: 0.8"/>
    <path d="M 358.840985 128.512448 
L 202.765508 87.25592 
L 105.819835 161.279504 
" style="fill: none; stroke: #b0b0b0; stroke-width: 0.8"/>
    <path d="M 360.21465 96.115596 
L 202.430124 55.903608 
L 104.345192 128.081688 
" style="fill: none; stroke: #b0b0b0; stroke-width: 0.8"/>
   </g>
  </g>
  <g id="axis3d_1">
   <g id="line2d_1">
    <path d="M 110.72809 271.776364 
L 269.384565 324.05367 
" style="fill: none; stroke: #000000; stroke-width: 0.8; stroke-linecap: square"/>
   </g>
   <g id="xtick_1">
    <g id="line2d_2">
     <path d="M 111.533714 271.086606 
L 109.11368 273.158588 
" style="fill: none; stroke: #000000; stroke-width: 0.8; stroke-linecap: square"/>
    </g>
    <g id="text_1">
     <!-- −0.100 -->
     <g transform="translate(85.4688 296.482391) scale(0.1 -0.1)">
      <defs>
       <path id="DejaVuSans-2212" d="M 678 2272 
L 4684 2272 
L 4684 1741 
L 678 1741 
L 678 2272 
z
" transform="scale(0.015625)"/>
       <path id="DejaVuSans-30" d="M 2034 4250 
Q 1547 4250 1301 3770 
Q 1056 3291 1056 2328 
Q 1056 1369 1301 889 
Q 1547 409 2034 409 
Q 2525 409 2770 889 
Q 3016 1369 3016 2328 
Q 3016 3291 2770 3770 
Q 2525 4250 2034 4250 
z
M 2034 4750 
Q 2819 4750 3233 4129 
Q 3647 3509 3647 2328 
Q 3647 1150 3233 529 
Q 2819 -91 2034 -91 
Q 1250 -91 836 529 
Q 422 1150 422 2328 
Q 422 3509 836 4129 
Q 1250 4750 2034 4750 
z
" transform="scale(0.015625)"/>
       <path id="DejaVuSans-2e" d="M 684 794 
L 1344 794 
L 1344 0 
L 684 0 
L 684 794 
z
" transform="scale(0.015625)"/>
       <path id="DejaVuSans-31" d="M 794 531 
L 1825 531 
L 1825 4091 
L 703 3866 
L 703 4441 
L 1819 4666 
L 2450 4666 
L 2450 531 
L 3481 531 
L 3481 0 
L 794 0 
L 794 531 
z
" transform="scale(0.015625)"/>
      </defs>
      <use xlink:href="#DejaVuSans-2212"/>
      <use xlink:href="#DejaVuSans-30" x="83.789062"/>
      <use xlink:href="#DejaVuSans-2e" x="147.412109"/>
      <use xlink:href="#DejaVuSans-31" x="179.199219"/>
      <use xlink:href="#DejaVuSans-30" x="242.822266"/>
      <use xlink:href="#DejaVuSans-30" x="306.445312"/>
     </g>
    </g>
   </g>
   <g id="xtick_2">
    <g id="line2d_3">
     <path d="M 130.534706 277.341771 
L 128.137826 279.438412 
" style="fill: none; stroke: #000000; stroke-width: 0.8; stroke-linecap: square"/>
    </g>
    <g id="text_2">
     <!-- −0.075 -->
     <g transform="translate(104.474774 302.85975) scale(0.1 -0.1)">
      <defs>
       <path id="DejaVuSans-37" d="M 525 4666 
L 3525 4666 
L 3525 4397 
L 1831 0 
L 1172 0 
L 2766 4134 
L 525 4134 
L 525 4666 
z
" transform="scale(0.015625)"/>
       <path id="DejaVuSans-35" d="M 691 4666 
L 3169 4666 
L 3169 4134 
L 1269 4134 
L 1269 2991 
Q 1406 3038 1543 3061 
Q 1681 3084 1819 3084 
Q 2600 3084 3056 2656 
Q 3513 2228 3513 1497 
Q 3513 744 3044 326 
Q 2575 -91 1722 -91 
Q 1428 -91 1123 -41 
Q 819 9 494 109 
L 494 744 
Q 775 591 1075 516 
Q 1375 441 1709 441 
Q 2250 441 2565 725 
Q 2881 1009 2881 1497 
Q 2881 1984 2565 2268 
Q 2250 2553 1709 2553 
Q 1456 2553 1204 2497 
Q 953 2441 691 2322 
L 691 4666 
z
" transform="scale(0.015625)"/>
      </defs>
      <use xlink:href="#DejaVuSans-2212"/>
      <use xlink:href="#DejaVuSans-30" x="83.789062"/>
      <use xlink:href="#DejaVuSans-2e" x="147.412109"/>
      <use xlink:href="#DejaVuSans-30" x="179.199219"/>
      <use xlink:href="#DejaVuSans-37" x="242.822266"/>
      <use xlink:href="#DejaVuSans-35" x="306.445312"/>
     </g>
    </g>
   </g>
   <g id="xtick_3">
    <g id="line2d_4">
     <path d="M 149.762279 283.671527 
L 147.38928 285.793269 
" style="fill: none; stroke: #000000; stroke-width: 0.8; stroke-linecap: square"/>
    </g>
    <g id="text_3">
     <!-- −0.050 -->
     <g transform="translate(123.707988 309.313358) scale(0.1 -0.1)">
      <use xlink:href="#DejaVuSans-2212"/>
      <use xlink:href="#DejaVuSans-30" x="83.789062"/>
      <use xlink:href="#DejaVuSans-2e" x="147.412109"/>
      <use xlink:href="#DejaVuSans-30" x="179.199219"/>
      <use xlink:href="#DejaVuSans-35" x="242.822266"/>
      <use xlink:href="#DejaVuSans-30" x="306.445312"/>
     </g>
    </g>
   </g>
   <g id="xtick_4">
    <g id="line2d_5">
     <path d="M 169.22051 290.077216 
L 166.872139 292.224513 
" style="fill: none; stroke: #000000; stroke-width: 0.8; stroke-linecap: square"/>
    </g>
    <g id="text_4">
     <!-- −0.025 -->
     <g transform="translate(143.17254 315.84459) scale(0.1 -0.1)">
      <defs>
       <path id="DejaVuSans-32" d="M 1228 531 
L 3431 531 
L 3431 0 
L 469 0 
L 469 531 
Q 828 903 1448 1529 
Q 2069 2156 2228 2338 
Q 2531 2678 2651 2914 
Q 2772 3150 2772 3378 
Q 2772 3750 2511 3984 
Q 2250 4219 1831 4219 
Q 1534 4219 1204 4116 
Q 875 4013 500 3803 
L 500 4441 
Q 881 4594 1212 4672 
Q 1544 4750 1819 4750 
Q 2544 4750 2975 4387 
Q 3406 4025 3406 3419 
Q 3406 3131 3298 2873 
Q 3191 2616 2906 2266 
Q 2828 2175 2409 1742 
Q 1991 1309 1228 531 
z
" transform="scale(0.015625)"/>
      </defs>
      <use xlink:href="#DejaVuSans-2212"/>
      <use xlink:href="#DejaVuSans-30" x="83.789062"/>
      <use xlink:href="#DejaVuSans-2e" x="147.412109"/>
      <use xlink:href="#DejaVuSans-30" x="179.199219"/>
      <use xlink:href="#DejaVuSans-32" x="242.822266"/>
      <use xlink:href="#DejaVuSans-35" x="306.445312"/>
     </g>
    </g>
   </g>
   <g id="xtick_5">
    <g id="line2d_6">
     <path d="M 188.913573 296.560213 
L 186.590602 298.733529 
" style="fill: none; stroke: #000000; stroke-width: 0.8; stroke-linecap: square"/>
    </g>
    <g id="text_5">
     <!-- 0.000 -->
     <g transform="translate(167.062474 322.454856) scale(0.1 -0.1)">
      <use xlink:href="#DejaVuSans-30"/>
      <use xlink:href="#DejaVuSans-2e" x="63.623047"/>
      <use xlink:href="#DejaVuSans-30" x="95.410156"/>
      <use xlink:href="#DejaVuSans-30" x="159.033203"/>
      <use xlink:href="#DejaVuSans-30" x="222.65625"/>
     </g>
    </g>
   </g>
   <g id="xtick_6">
    <g id="line2d_7">
     <path d="M 208.845748 303.121925 
L 206.548968 305.321736 
" style="fill: none; stroke: #000000; stroke-width: 0.8; stroke-linecap: square"/>
    </g>
    <g id="text_6">
     <!-- 0.025 -->
     <g transform="translate(187.002404 329.145599) scale(0.1 -0.1)">
      <use xlink:href="#DejaVuSans-30"/>
      <use xlink:href="#DejaVuSans-2e" x="63.623047"/>
      <use xlink:href="#DejaVuSans-30" x="95.410156"/>
      <use xlink:href="#DejaVuSans-32" x="159.033203"/>
      <use xlink:href="#DejaVuSans-35" x="222.65625"/>
     </g>
    </g>
   </g>
   <g id="xtick_7">
    <g id="line2d_8">
     <path d="M 229.021414 309.763795 
L 226.751642 311.990588 
" style="fill: none; stroke: #000000; stroke-width: 0.8; stroke-linecap: square"/>
    </g>
    <g id="text_7">
     <!-- 0.050 -->
     <g transform="translate(207.186579 335.918297) scale(0.1 -0.1)">
      <use xlink:href="#DejaVuSans-30"/>
      <use xlink:href="#DejaVuSans-2e" x="63.623047"/>
      <use xlink:href="#DejaVuSans-30" x="95.410156"/>
      <use xlink:href="#DejaVuSans-35" x="159.033203"/>
      <use xlink:href="#DejaVuSans-30" x="222.65625"/>
     </g>
    </g>
   </g>
   <g id="xtick_8">
    <g id="line2d_9">
     <path d="M 249.445061 316.487301 
L 247.203137 318.741576 
" style="fill: none; stroke: #000000; stroke-width: 0.8; stroke-linecap: square"/>
    </g>
    <g id="text_8">
     <!-- 0.075 -->
     <g transform="translate(227.619516 342.774466) scale(0.1 -0.1)">
      <use xlink:href="#DejaVuSans-30"/>
      <use xlink:href="#DejaVuSans-2e" x="63.623047"/>
      <use xlink:href="#DejaVuSans-30" x="95.410156"/>
      <use xlink:href="#DejaVuSans-37" x="159.033203"/>
      <use xlink:href="#DejaVuSans-35" x="222.65625"/>
     </g>
    </g>
   </g>
   <g id="xtick_9">
    <g id="line2d_10">
     <path d="M 270.121289 323.293957 
L 267.908079 325.576227 
" style="fill: none; stroke: #000000; stroke-width: 0.8; stroke-linecap: square"/>
    </g>
    <g id="text_9">
     <!-- 0.100 -->
     <g transform="translate(248.305842 349.715658) scale(0.1 -0.1)">
      <use xlink:href="#DejaVuSans-30"/>
      <use xlink:href="#DejaVuSans-2e" x="63.623047"/>
      <use xlink:href="#DejaVuSans-31" x="95.410156"/>
      <use xlink:href="#DejaVuSans-30" x="159.033203"/>
      <use xlink:href="#DejaVuSans-30" x="222.65625"/>
     </g>
    </g>
   </g>
   <g id="text_10">
    <!-- X [m] -->
    <g transform="translate(159.4448 333.881835) rotate(-341.762949) scale(0.1 -0.1)">
     <defs>
      <path id="DejaVuSans-58" d="M 403 4666 
L 1081 4666 
L 2241 2931 
L 3406 4666 
L 4084 4666 
L 2584 2425 
L 4184 0 
L 3506 0 
L 2194 1984 
L 872 0 
L 191 0 
L 1856 2491 
L 403 4666 
z
" transform="scale(0.015625)"/>
      <path id="DejaVuSans-20" transform="scale(0.015625)"/>
      <path id="DejaVuSans-5b" d="M 550 4863 
L 1875 4863 
L 1875 4416 
L 1125 4416 
L 1125 -397 
L 1875 -397 
L 1875 -844 
L 550 -844 
L 550 4863 
z
" transform="scale(0.015625)"/>
      <path id="DejaVuSans-6d" d="M 3328 2828 
Q 3544 3216 3844 3400 
Q 4144 3584 4550 3584 
Q 5097 3584 5394 3201 
Q 5691 2819 5691 2113 
L 5691 0 
L 5113 0 
L 5113 2094 
Q 5113 2597 4934 2840 
Q 4756 3084 4391 3084 
Q 3944 3084 3684 2787 
Q 3425 2491 3425 1978 
L 3425 0 
L 2847 0 
L 2847 2094 
Q 2847 2600 2669 2842 
Q 2491 3084 2119 3084 
Q 1678 3084 1418 2786 
Q 1159 2488 1159 1978 
L 1159 0 
L 581 0 
L 581 3500 
L 1159 3500 
L 1159 2956 
Q 1356 3278 1631 3431 
Q 1906 3584 2284 3584 
Q 2666 3584 2933 3390 
Q 3200 3197 3328 2828 
z
" transform="scale(0.015625)"/>
      <path id="DejaVuSans-5d" d="M 1947 4863 
L 1947 -844 
L 622 -844 
L 622 -397 
L 1369 -397 
L 1369 4416 
L 622 4416 
L 622 4863 
L 1947 4863 
z
" transform="scale(0.015625)"/>
     </defs>
     <use xlink:href="#DejaVuSans-58"/>
     <use xlink:href="#DejaVuSans-20" x="68.505859"/>
     <use xlink:href="#DejaVuSans-5b" x="100.292969"/>
     <use xlink:href="#DejaVuSans-6d" x="139.306641"/>
     <use xlink:href="#DejaVuSans-5d" x="236.71875"/>
    </g>
   </g>
  </g>
  <g id="axis3d_2">
   <g id="line2d_11">
    <path d="M 354.260962 236.528859 
L 269.384565 324.05367 
" style="fill: none; stroke: #000000; stroke-width: 0.8; stroke-linecap: square"/>
   </g>
   <g id="xtick_10">
    <g id="line2d_12">
     <path d="M 268.053009 323.614923 
L 272.050842 324.932208 
" style="fill: none; stroke: #000000; stroke-width: 0.8; stroke-linecap: square"/>
    </g>
    <g id="text_11">
     <!-- −0.100 -->
     <g transform="translate(262.671395 346.790283) scale(0.1 -0.1)">
      <use xlink:href="#DejaVuSans-2212"/>
      <use xlink:href="#DejaVuSans-30" x="83.789062"/>
      <use xlink:href="#DejaVuSans-2e" x="147.412109"/>
      <use xlink:href="#DejaVuSans-31" x="179.199219"/>
      <use xlink:href="#DejaVuSans-30" x="242.822266"/>
      <use xlink:href="#DejaVuSans-30" x="306.445312"/>
     </g>
    </g>
   </g>
   <g id="xtick_11">
    <g id="line2d_13">
     <path d="M 279.459729 311.871482 
L 283.428554 313.160974 
" style="fill: none; stroke: #000000; stroke-width: 0.8; stroke-linecap: square"/>
    </g>
    <g id="text_12">
     <!-- −0.075 -->
     <g transform="translate(273.937316 334.883534) scale(0.1 -0.1)">
      <use xlink:href="#DejaVuSans-2212"/>
      <use xlink:href="#DejaVuSans-30" x="83.789062"/>
      <use xlink:href="#DejaVuSans-2e" x="147.412109"/>
      <use xlink:href="#DejaVuSans-30" x="179.199219"/>
      <use xlink:href="#DejaVuSans-37" x="242.822266"/>
      <use xlink:href="#DejaVuSans-35" x="306.445312"/>
     </g>
    </g>
   </g>
   <g id="xtick_12">
    <g id="line2d_14">
     <path d="M 290.627167 300.374387 
L 294.567316 301.636955 
" style="fill: none; stroke: #000000; stroke-width: 0.8; stroke-linecap: square"/>
    </g>
    <g id="text_13">
     <!-- −0.050 -->
     <g transform="translate(284.966944 323.226518) scale(0.1 -0.1)">
      <use xlink:href="#DejaVuSans-2212"/>
      <use xlink:href="#DejaVuSans-30" x="83.789062"/>
      <use xlink:href="#DejaVuSans-2e" x="147.412109"/>
      <use xlink:href="#DejaVuSans-30" x="179.199219"/>
      <use xlink:href="#DejaVuSans-35" x="242.822266"/>
      <use xlink:href="#DejaVuSans-30" x="306.445312"/>
     </g>
    </g>
   </g>
   <g id="xtick_13">
    <g id="line2d_15">
     <path d="M 301.562776 289.115964 
L 305.474577 290.352443 
" style="fill: none; stroke: #000000; stroke-width: 0.8; stroke-linecap: square"/>
    </g>
    <g id="text_14">
     <!-- −0.025 -->
     <g transform="translate(295.767637 311.811459) scale(0.1 -0.1)">
      <use xlink:href="#DejaVuSans-2212"/>
      <use xlink:href="#DejaVuSans-30" x="83.789062"/>
      <use xlink:href="#DejaVuSans-2e" x="147.412109"/>
      <use xlink:href="#DejaVuSans-30" x="179.199219"/>
      <use xlink:href="#DejaVuSans-32" x="242.822266"/>
      <use xlink:href="#DejaVuSans-35" x="306.445312"/>
     </g>
    </g>
   </g>
   <g id="xtick_14">
    <g id="line2d_16">
     <path d="M 312.2737 278.088858 
L 316.15748 279.300049 
" style="fill: none; stroke: #000000; stroke-width: 0.8; stroke-linecap: square"/>
    </g>
    <g id="text_15">
     <!-- 0.000 -->
     <g transform="translate(310.536294 300.630901) scale(0.1 -0.1)">
      <use xlink:href="#DejaVuSans-30"/>
      <use xlink:href="#DejaVuSans-2e" x="63.623047"/>
      <use xlink:href="#DejaVuSans-30" x="95.410156"/>
      <use xlink:href="#DejaVuSans-30" x="159.033203"/>
      <use xlink:href="#DejaVuSans-30" x="222.65625"/>
     </g>
    </g>
   </g>
   <g id="xtick_15">
    <g id="line2d_17">
     <path d="M 322.766793 267.286014 
L 326.622878 268.472684 
" style="fill: none; stroke: #000000; stroke-width: 0.8; stroke-linecap: square"/>
    </g>
    <g id="text_16">
     <!-- 0.025 -->
     <g transform="translate(320.899995 289.677692) scale(0.1 -0.1)">
      <use xlink:href="#DejaVuSans-30"/>
      <use xlink:href="#DejaVuSans-2e" x="63.623047"/>
      <use xlink:href="#DejaVuSans-30" x="95.410156"/>
      <use xlink:href="#DejaVuSans-32" x="159.033203"/>
      <use xlink:href="#DejaVuSans-35" x="222.65625"/>
     </g>
    </g>
   </g>
   <g id="xtick_16">
    <g id="line2d_18">
     <path d="M 333.048634 256.700658 
L 336.877345 257.863544 
" style="fill: none; stroke: #000000; stroke-width: 0.8; stroke-linecap: square"/>
    </g>
    <g id="text_17">
     <!-- 0.050 -->
     <g transform="translate(331.055078 278.944967) scale(0.1 -0.1)">
      <use xlink:href="#DejaVuSans-30"/>
      <use xlink:href="#DejaVuSans-2e" x="63.623047"/>
      <use xlink:href="#DejaVuSans-30" x="95.410156"/>
      <use xlink:href="#DejaVuSans-35" x="159.033203"/>
      <use xlink:href="#DejaVuSans-30" x="222.65625"/>
     </g>
    </g>
   </g>
   <g id="xtick_17">
    <g id="line2d_19">
     <path d="M 343.125539 246.326289 
L 346.927195 247.466099 
" style="fill: none; stroke: #000000; stroke-width: 0.8; stroke-linecap: square"/>
    </g>
    <g id="text_18">
     <!-- 0.075 -->
     <g transform="translate(341.00778 268.426135) scale(0.1 -0.1)">
      <use xlink:href="#DejaVuSans-30"/>
      <use xlink:href="#DejaVuSans-2e" x="63.623047"/>
      <use xlink:href="#DejaVuSans-30" x="95.410156"/>
      <use xlink:href="#DejaVuSans-37" x="159.033203"/>
      <use xlink:href="#DejaVuSans-35" x="222.65625"/>
     </g>
    </g>
   </g>
   <g id="xtick_18">
    <g id="line2d_20">
     <path d="M 353.003573 236.156659 
L 356.778492 237.274074 
" style="fill: none; stroke: #000000; stroke-width: 0.8; stroke-linecap: square"/>
    </g>
    <g id="text_19">
     <!-- 0.100 -->
     <g transform="translate(350.764091 258.114865) scale(0.1 -0.1)">
      <use xlink:href="#DejaVuSans-30"/>
      <use xlink:href="#DejaVuSans-2e" x="63.623047"/>
      <use xlink:href="#DejaVuSans-31" x="95.410156"/>
      <use xlink:href="#DejaVuSans-30" x="159.033203"/>
      <use xlink:href="#DejaVuSans-30" x="222.65625"/>
     </g>
    </g>
   </g>
   <g id="text_20">
    <!-- Y [m] -->
    <g transform="translate(330.722535 321.633138) rotate(-45.880104) scale(0.1 -0.1)">
     <defs>
      <path id="DejaVuSans-59" d="M -13 4666 
L 666 4666 
L 1959 2747 
L 3244 4666 
L 3922 4666 
L 2272 2222 
L 2272 0 
L 1638 0 
L 1638 2222 
L -13 4666 
z
" transform="scale(0.015625)"/>
     </defs>
     <use xlink:href="#DejaVuSans-59"/>
     <use xlink:href="#DejaVuSans-20" x="61.083984"/>
     <use xlink:href="#DejaVuSans-5b" x="92.871094"/>
     <use xlink:href="#DejaVuSans-6d" x="131.884766"/>
     <use xlink:href="#DejaVuSans-5d" x="229.296875"/>
    </g>
   </g>
  </g>
  <g id="axis3d_3">
   <g id="line2d_21">
    <path d="M 354.260962 236.528859 
L 360.912933 79.647116 
" style="fill: none; stroke: #000000; stroke-width: 0.8; stroke-linecap: square"/>
   </g>
   <g id="xtick_19">
    <g id="line2d_22">
     <path d="M 353.630201 221.21926 
L 357.425803 222.326149 
" style="fill: none; stroke: #000000; stroke-width: 0.8; stroke-linecap: square"/>
    </g>
    <g id="text_21">
     <!-- −0.04 -->
     <g transform="translate(356.499047 226.772084) scale(0.1 -0.1)">
      <defs>
       <path id="DejaVuSans-34" d="M 2419 4116 
L 825 1625 
L 2419 1625 
L 2419 4116 
z
M 2253 4666 
L 3047 4666 
L 3047 1625 
L 3713 1625 
L 3713 1100 
L 3047 1100 
L 3047 0 
L 2419 0 
L 2419 1100 
L 313 1100 
L 313 1709 
L 2253 4666 
z
" transform="scale(0.015625)"/>
      </defs>
      <use xlink:href="#DejaVuSans-2212"/>
      <use xlink:href="#DejaVuSans-30" x="83.789062"/>
      <use xlink:href="#DejaVuSans-2e" x="147.412109"/>
      <use xlink:href="#DejaVuSans-30" x="179.199219"/>
      <use xlink:href="#DejaVuSans-34" x="242.822266"/>
     </g>
    </g>
   </g>
   <g id="xtick_20">
    <g id="line2d_23">
     <path d="M 354.90356 190.865227 
L 358.741215 191.950194 
" style="fill: none; stroke: #000000; stroke-width: 0.8; stroke-linecap: square"/>
    </g>
    <g id="text_22">
     <!-- −0.02 -->
     <g transform="translate(357.963934 196.458632) scale(0.1 -0.1)">
      <use xlink:href="#DejaVuSans-2212"/>
      <use xlink:href="#DejaVuSans-30" x="83.789062"/>
      <use xlink:href="#DejaVuSans-2e" x="147.412109"/>
      <use xlink:href="#DejaVuSans-30" x="179.199219"/>
      <use xlink:href="#DejaVuSans-32" x="242.822266"/>
     </g>
    </g>
   </g>
   <g id="xtick_21">
    <g id="line2d_24">
     <path d="M 356.204449 159.854946 
L 360.085098 160.916779 
" style="fill: none; stroke: #000000; stroke-width: 0.8; stroke-linecap: square"/>
    </g>
    <g id="text_23">
     <!-- 0.00 -->
     <g transform="translate(363.650268 165.491171) scale(0.1 -0.1)">
      <use xlink:href="#DejaVuSans-30"/>
      <use xlink:href="#DejaVuSans-2e" x="63.623047"/>
      <use xlink:href="#DejaVuSans-30" x="95.410156"/>
      <use xlink:href="#DejaVuSans-30" x="159.033203"/>
     </g>
    </g>
   </g>
   <g id="xtick_22">
    <g id="line2d_25">
     <path d="M 357.53377 128.166903 
L 361.458387 129.204324 
" style="fill: none; stroke: #000000; stroke-width: 0.8; stroke-linecap: square"/>
    </g>
    <g id="text_24">
     <!-- 0.02 -->
     <g transform="translate(365.179398 133.848306) scale(0.1 -0.1)">
      <use xlink:href="#DejaVuSans-30"/>
      <use xlink:href="#DejaVuSans-2e" x="63.623047"/>
      <use xlink:href="#DejaVuSans-30" x="95.410156"/>
      <use xlink:href="#DejaVuSans-32" x="159.033203"/>
     </g>
    </g>
   </g>
   <g id="xtick_23">
    <g id="line2d_26">
     <path d="M 358.892466 95.778633 
L 362.862057 96.790298 
" style="fill: none; stroke: #000000; stroke-width: 0.8; stroke-linecap: square"/>
    </g>
    <g id="text_25">
     <!-- 0.04 -->
     <g transform="translate(366.742245 101.507697) scale(0.1 -0.1)">
      <use xlink:href="#DejaVuSans-30"/>
      <use xlink:href="#DejaVuSans-2e" x="63.623047"/>
      <use xlink:href="#DejaVuSans-30" x="95.410156"/>
      <use xlink:href="#DejaVuSans-34" x="159.033203"/>
     </g>
    </g>
   </g>
   <g id="text_26">
    <!-- Z [m] -->
    <g transform="translate(397.140427 169.078985) rotate(-87.572045) scale(0.1 -0.1)">
     <defs>
      <path id="DejaVuSans-5a" d="M 359 4666 
L 4025 4666 
L 4025 4184 
L 1075 531 
L 4097 531 
L 4097 0 
L 288 0 
L 288 481 
L 3238 4134 
L 359 4134 
L 359 4666 
z
" transform="scale(0.015625)"/>
     </defs>
     <use xlink:href="#DejaVuSans-5a"/>
     <use xlink:href="#DejaVuSans-20" x="68.505859"/>
     <use xlink:href="#DejaVuSans-5b" x="100.292969"/>
     <use xlink:href="#DejaVuSans-6d" x="139.306641"/>
     <use xlink:href="#DejaVuSans-5d" x="236.71875"/>
    </g>
   </g>
  </g>
  <g id="axes_1">
   <g id="line2d_27">
    <path d="M 234.561081 253.853511 
L 233.724781 244.999317 
L 231.491721 236.965945 
L 228.469071 229.949437 
L 225.301245 223.457881 
L 222.568677 216.712594 
L 222.510393 216.534596 
L 222.452099 216.356565 
L 222.393794 216.178502 
L 222.335478 216.000406 
L 222.277152 215.822278 
L 222.218815 215.644118 
L 222.160467 215.465925 
L 222.102109 215.2877 
L 222.04374 215.109442 
L 221.985361 214.931152 
L 221.926971 214.752829 
L 221.86857 214.574474 
L 221.810159 214.396087 
L 221.751737 214.217667 
L 221.693305 214.039215 
L 221.634861 213.86073 
L 221.576408 213.682213 
L 221.517943 213.503663 
L 221.459468 213.32508 
L 221.400982 213.146466 
L 219.869965 205.219825 
L 220.176646 196.295041 
L 222.292414 187.546985 
L 225.780701 179.973806 
L 230.067532 173.931626 
L 230.180389 173.798244 
L 230.293249 173.664858 
L 230.406111 173.531469 
L 230.518977 173.398077 
L 230.631845 173.26468 
L 230.744717 173.131281 
L 230.857592 172.997877 
L 230.970469 172.86447 
L 231.08335 172.73106 
L 231.196234 172.597646 
L 231.30912 172.464229 
L 231.42201 172.330807 
L 231.534903 172.197383 
L 231.647798 172.063955 
L 231.760697 171.930523 
L 231.873599 171.797087 
L 231.986504 171.663648 
L 232.099411 171.530206 
L 232.212322 171.39676 
L 232.325236 171.26331 
L 236.937499 166.342775 
L 241.653951 161.906709 
L 246.389091 157.44103 
L 251.063741 152.4913 
L 255.559856 146.732189 
L 255.668695 146.5764 
L 255.777541 146.420601 
L 255.886395 146.264791 
L 255.995256 146.108972 
L 256.104124 145.953141 
L 256.213 145.7973 
L 256.321882 145.641449 
L 256.430772 145.485588 
L 256.53967 145.329715 
L 256.648574 145.173833 
L 256.757486 145.01794 
L 256.866406 144.862036 
L 256.975332 144.706122 
L 257.084266 144.550198 
L 257.193207 144.394263 
L 257.302156 144.238318 
L 257.411111 144.082362 
L 257.520074 143.926396 
L 257.629045 143.770419 
L 257.738023 143.614432 
" clip-path="url(#p0dd6960c8b)" style="fill: none; stroke: #1f77b4; stroke-width: 1.5; stroke-linecap: square"/>
    <defs>
     <path id="mdb8b7c3cc5" d="M 0 1.5 
C 0.397805 1.5 0.77937 1.341951 1.06066 1.06066 
C 1.341951 0.77937 1.5 0.397805 1.5 0 
C 1.5 -0.397805 1.341951 -0.77937 1.06066 -1.06066 
C 0.77937 -1.341951 0.397805 -1.5 0 -1.5 
C -0.397805 -1.5 -0.77937 -1.341951 -1.06066 -1.06066 
C -1.341951 -0.77937 -1.5 -0.397805 -1.5 0 
C -1.5 0.397805 -1.341951 0.77937 -1.06066 1.06066 
C -0.77937 1.341951 -0.397805 1.5 0 1.5 
z
" style="stroke: #1f77b4"/>
    </defs>
    <g clip-path="url(#p0dd6960c8b)">
     <use xlink:href="#mdb8b7c3cc5" x="234.561081" y="253.853511" style="fill: #1f77b4; stroke: #1f77b4"/>
     <use xlink:href="#mdb8b7c3cc5" x="233.724781" y="244.999317" style="fill: #1f77b4; stroke: #1f77b4"/>
     <use xlink:href="#mdb8b7c3cc5" x="231.491721" y="236.965945" style="fill: #1f77b4; stroke: #1f77b4"/>
     <use xlink:href="#mdb8b7c3cc5" x="228.469071" y="229.949437" style="fill: #1f77b4; stroke: #1f77b4"/>
     <use xlink:href="#mdb8b7c3cc5" x="225.301245" y="223.457881" style="fill: #1f77b4; stroke: #1f77b4"/>
     <use xlink:href="#mdb8b7c3cc5" x="222.568677" y="216.712594" style="fill: #1f77b4; stroke: #1f77b4"/>
     <use xlink:href="#mdb8b7c3cc5" x="222.510393" y="216.534596" style="fill: #1f77b4; stroke: #1f77b4"/>
     <use xlink:href="#mdb8b7c3cc5" x="222.452099" y="216.356565" style="fill: #1f77b4; stroke: #1f77b4"/>
     <use xlink:href="#mdb8b7c3cc5" x="222.393794" y="216.178502" style="fill: #1f77b4; stroke: #1f77b4"/>
     <use xlink:href="#mdb8b7c3cc5" x="222.335478" y="216.000406" style="fill: #1f77b4; stroke: #1f77b4"/>
     <use xlink:href="#mdb8b7c3cc5" x="222.277152" y="215.822278" style="fill: #1f77b4; stroke: #1f77b4"/>
     <use xlink:href="#mdb8b7c3cc5" x="222.218815" y="215.644118" style="fill: #1f77b4; stroke: #1f77b4"/>
     <use xlink:href="#mdb8b7c3cc5" x="222.160467" y="215.465925" style="fill: #1f77b4; stroke: #1f77b4"/>
     <use xlink:href="#mdb8b7c3cc5" x="222.102109" y="215.2877" style="fill: #1f77b4; stroke: #1f77b4"/>
     <use xlink:href="#mdb8b7c3cc5" x="222.04374" y="215.109442" style="fill: #1f77b4; stroke: #1f77b4"/>
     <use xlink:href="#mdb8b7c3cc5" x="221.985361" y="214.931152" style="fill: #1f77b4; stroke: #1f77b4"/>
     <use xlink:href="#mdb8b7c3cc5" x="221.926971" y="214.752829" style="fill: #1f77b4; stroke: #1f77b4"/>
     <use xlink:href="#mdb8b7c3cc5" x="221.86857" y="214.574474" style="fill: #1f77b4; stroke: #1f77b4"/>
     <use xlink:href="#mdb8b7c3cc5" x="221.810159" y="214.396087" style="fill: #1f77b4; stroke: #1f77b4"/>
     <use xlink:href="#mdb8b7c3cc5" x="221.751737" y="214.217667" style="fill: #1f77b4; stroke: #1f77b4"/>
     <use xlink:href="#mdb8b7c3cc5" x="221.693305" y="214.039215" style="fill: #1f77b4; stroke: #1f77b4"/>
     <use xlink:href="#mdb8b7c3cc5" x="221.634861" y="213.86073" style="fill: #1f77b4; stroke: #1f77b4"/>
     <use xlink:href="#mdb8b7c3cc5" x="221.576408" y="213.682213" style="fill: #1f77b4; stroke: #1f77b4"/>
     <use xlink:href="#mdb8b7c3cc5" x="221.517943" y="213.503663" style="fill: #1f77b4; stroke: #1f77b4"/>
     <use xlink:href="#mdb8b7c3cc5" x="221.459468" y="213.32508" style="fill: #1f77b4; stroke: #1f77b4"/>
     <use xlink:href="#mdb8b7c3cc5" x="221.400982" y="213.146466" style="fill: #1f77b4; stroke: #1f77b4"/>
     <use xlink:href="#mdb8b7c3cc5" x="219.869965" y="205.219825" style="fill: #1f77b4; stroke: #1f77b4"/>
     <use xlink:href="#mdb8b7c3cc5" x="220.176646" y="196.295041" style="fill: #1f77b4; stroke: #1f77b4"/>
     <use xlink:href="#mdb8b7c3cc5" x="222.292414" y="187.546985" style="fill: #1f77b4; stroke: #1f77b4"/>
     <use xlink:href="#mdb8b7c3cc5" x="225.780701" y="179.973806" style="fill: #1f77b4; stroke: #1f77b4"/>
     <use xlink:href="#mdb8b7c3cc5" x="230.067532" y="173.931626" style="fill: #1f77b4; stroke: #1f77b4"/>
     <use xlink:href="#mdb8b7c3cc5" x="230.180389" y="173.798244" style="fill: #1f77b4; stroke: #1f77b4"/>
     <use xlink:href="#mdb8b7c3cc5" x="230.293249" y="173.664858" style="fill: #1f77b4; stroke: #1f77b4"/>
     <use xlink:href="#mdb8b7c3cc5" x="230.406111" y="173.531469" style="fill: #1f77b4; stroke: #1f77b4"/>
     <use xlink:href="#mdb8b7c3cc5" x="230.518977" y="173.398077" style="fill: #1f77b4; stroke: #1f77b4"/>
     <use xlink:href="#mdb8b7c3cc5" x="230.631845" y="173.26468" style="fill: #1f77b4; stroke: #1f77b4"/>
     <use xlink:href="#mdb8b7c3cc5" x="230.744717" y="173.131281" style="fill: #1f77b4; stroke: #1f77b4"/>
     <use xlink:href="#mdb8b7c3cc5" x="230.857592" y="172.997877" style="fill: #1f77b4; stroke: #1f77b4"/>
     <use xlink:href="#mdb8b7c3cc5" x="230.970469" y="172.86447" style="fill: #1f77b4; stroke: #1f77b4"/>
     <use xlink:href="#mdb8b7c3cc5" x="231.08335" y="172.73106" style="fill: #1f77b4; stroke: #1f77b4"/>
     <use xlink:href="#mdb8b7c3cc5" x="231.196234" y="172.597646" style="fill: #1f77b4; stroke: #1f77b4"/>
     <use xlink:href="#mdb8b7c3cc5" x="231.30912" y="172.464229" style="fill: #1f77b4; stroke: #1f77b4"/>
     <use xlink:href="#mdb8b7c3cc5" x="231.42201" y="172.330807" style="fill: #1f77b4; stroke: #1f77b4"/>
     <use xlink:href="#mdb8b7c3cc5" x="231.534903" y="172.197383" style="fill: #1f77b4; stroke: #1f77b4"/>
     <use xlink:href="#mdb8b7c3cc5" x="231.647798" y="172.063955" style="fill: #1f77b4; stroke: #1f77b4"/>
     <use xlink:href="#mdb8b7c3cc5" x="231.760697" y="171.930523" style="fill: #1f77b4; stroke: #1f77b4"/>
     <use xlink:href="#mdb8b7c3cc5" x="231.873599" y="171.797087" style="fill: #1f77b4; stroke: #1f77b4"/>
     <use xlink:href="#mdb8b7c3cc5" x="231.986504" y="171.663648" style="fill: #1f77b4; stroke: #1f77b4"/>
     <use xlink:href="#mdb8b7c3cc5" x="232.099411" y="171.530206" style="fill: #1f77b4; stroke: #1f77b4"/>
     <use xlink:href="#mdb8b7c3cc5" x="232.212322" y="171.39676" style="fill: #1f77b4; stroke: #1f77b4"/>
     <use xlink:href="#mdb8b7c3cc5" x="232.325236" y="171.26331" style="fill: #1f77b4; stroke: #1f77b4"/>
     <use xlink:href="#mdb8b7c3cc5" x="236.937499" y="166.342775" style="fill: #1f77b4; stroke: #1f77b4"/>
     <use xlink:href="#mdb8b7c3cc5" x="241.653951" y="161.906709" style="fill: #1f77b4; stroke: #1f77b4"/>
     <use xlink:href="#mdb8b7c3cc5" x="246.389091" y="157.44103" style="fill: #1f77b4; stroke: #1f77b4"/>
     <use xlink:href="#mdb8b7c3cc5" x="251.063741" y="152.4913" style="fill: #1f77b4; stroke: #1f77b4"/>
     <use xlink:href="#mdb8b7c3cc5" x="255.559856" y="146.732189" style="fill: #1f77b4; stroke: #1f77b4"/>
     <use xlink:href="#mdb8b7c3cc5" x="255.668695" y="146.5764" style="fill: #1f77b4; stroke: #1f77b4"/>
     <use xlink:href="#mdb8b7c3cc5" x="255.777541" y="146.420601" style="fill: #1f77b4; stroke: #1f77b4"/>
     <use xlink:href="#mdb8b7c3cc5" x="255.886395" y="146.264791" style="fill: #1f77b4; stroke: #1f77b4"/>
     <use xlink:href="#mdb8b7c3cc5" x="255.995256" y="146.108972" style="fill: #1f77b4; stroke: #1f77b4"/>
     <use xlink:href="#mdb8b7c3cc5" x="256.104124" y="145.953141" style="fill: #1f77b4; stroke: #1f77b4"/>
     <use xlink:href="#mdb8b7c3cc5" x="256.213" y="145.7973" style="fill: #1f77b4; stroke: #1f77b4"/>
     <use xlink:href="#mdb8b7c3cc5" x="256.321882" y="145.641449" style="fill: #1f77b4; stroke: #1f77b4"/>
     <use xlink:href="#mdb8b7c3cc5" x="256.430772" y="145.485588" style="fill: #1f77b4; stroke: #1f77b4"/>
     <use xlink:href="#mdb8b7c3cc5" x="256.53967" y="145.329715" style="fill: #1f77b4; stroke: #1f77b4"/>
     <use xlink:href="#mdb8b7c3cc5" x="256.648574" y="145.173833" style="fill: #1f77b4; stroke: #1f77b4"/>
     <use xlink:href="#mdb8b7c3cc5" x="256.757486" y="145.01794" style="fill: #1f77b4; stroke: #1f77b4"/>
     <use xlink:href="#mdb8b7c3cc5" x="256.866406" y="144.862036" style="fill: #1f77b4; stroke: #1f77b4"/>
     <use xlink:href="#mdb8b7c3cc5" x="256.975332" y="144.706122" style="fill: #1f77b4; stroke: #1f77b4"/>
     <use xlink:href="#mdb8b7c3cc5" x="257.084266" y="144.550198" style="fill: #1f77b4; stroke: #1f77b4"/>
     <use xlink:href="#mdb8b7c3cc5" x="257.193207" y="144.394263" style="fill: #1f77b4; stroke: #1f77b4"/>
     <use xlink:href="#mdb8b7c3cc5" x="257.302156" y="144.238318" style="fill: #1f77b4; stroke: #1f77b4"/>
     <use xlink:href="#mdb8b7c3cc5" x="257.411111" y="144.082362" style="fill: #1f77b4; stroke: #1f77b4"/>
     <use xlink:href="#mdb8b7c3cc5" x="257.520074" y="143.926396" style="fill: #1f77b4; stroke: #1f77b4"/>
     <use xlink:href="#mdb8b7c3cc5" x="257.629045" y="143.770419" style="fill: #1f77b4; stroke: #1f77b4"/>
     <use xlink:href="#mdb8b7c3cc5" x="257.738023" y="143.614432" style="fill: #1f77b4; stroke: #1f77b4"/>
    </g>
   </g>
   <g id="text_27">
    <!-- Multi-segment catheter (gravity + magnetic) configuration (nondim solve) -->
    <g transform="translate(6.859688 20.88) scale(0.12 -0.12)">
     <defs>
      <path id="DejaVuSans-4d" d="M 628 4666 
L 1569 4666 
L 2759 1491 
L 3956 4666 
L 4897 4666 
L 4897 0 
L 4281 0 
L 4281 4097 
L 3078 897 
L 2444 897 
L 1241 4097 
L 1241 0 
L 628 0 
L 628 4666 
z
" transform="scale(0.015625)"/>
      <path id="DejaVuSans-75" d="M 544 1381 
L 544 3500 
L 1119 3500 
L 1119 1403 
Q 1119 906 1312 657 
Q 1506 409 1894 409 
Q 2359 409 2629 706 
Q 2900 1003 2900 1516 
L 2900 3500 
L 3475 3500 
L 3475 0 
L 2900 0 
L 2900 538 
Q 2691 219 2414 64 
Q 2138 -91 1772 -91 
Q 1169 -91 856 284 
Q 544 659 544 1381 
z
M 1991 3584 
L 1991 3584 
z
" transform="scale(0.015625)"/>
      <path id="DejaVuSans-6c" d="M 603 4863 
L 1178 4863 
L 1178 0 
L 603 0 
L 603 4863 
z
" transform="scale(0.015625)"/>
      <path id="DejaVuSans-74" d="M 1172 4494 
L 1172 3500 
L 2356 3500 
L 2356 3053 
L 1172 3053 
L 1172 1153 
Q 1172 725 1289 603 
Q 1406 481 1766 481 
L 2356 481 
L 2356 0 
L 1766 0 
Q 1100 0 847 248 
Q 594 497 594 1153 
L 594 3053 
L 172 3053 
L 172 3500 
L 594 3500 
L 594 4494 
L 1172 4494 
z
" transform="scale(0.015625)"/>
      <path id="DejaVuSans-69" d="M 603 3500 
L 1178 3500 
L 1178 0 
L 603 0 
L 603 3500 
z
M 603 4863 
L 1178 4863 
L 1178 4134 
L 603 4134 
L 603 4863 
z
" transform="scale(0.015625)"/>
      <path id="DejaVuSans-2d" d="M 313 2009 
L 1997 2009 
L 1997 1497 
L 313 1497 
L 313 2009 
z
" transform="scale(0.015625)"/>
      <path id="DejaVuSans-73" d="M 2834 3397 
L 2834 2853 
Q 2591 2978 2328 3040 
Q 2066 3103 1784 3103 
Q 1356 3103 1142 2972 
Q 928 2841 928 2578 
Q 928 2378 1081 2264 
Q 1234 2150 1697 2047 
L 1894 2003 
Q 2506 1872 2764 1633 
Q 3022 1394 3022 966 
Q 3022 478 2636 193 
Q 2250 -91 1575 -91 
Q 1294 -91 989 -36 
Q 684 19 347 128 
L 347 722 
Q 666 556 975 473 
Q 1284 391 1588 391 
Q 1994 391 2212 530 
Q 2431 669 2431 922 
Q 2431 1156 2273 1281 
Q 2116 1406 1581 1522 
L 1381 1569 
Q 847 1681 609 1914 
Q 372 2147 372 2553 
Q 372 3047 722 3315 
Q 1072 3584 1716 3584 
Q 2034 3584 2315 3537 
Q 2597 3491 2834 3397 
z
" transform="scale(0.015625)"/>
      <path id="DejaVuSans-65" d="M 3597 1894 
L 3597 1613 
L 953 1613 
Q 991 1019 1311 708 
Q 1631 397 2203 397 
Q 2534 397 2845 478 
Q 3156 559 3463 722 
L 3463 178 
Q 3153 47 2828 -22 
Q 2503 -91 2169 -91 
Q 1331 -91 842 396 
Q 353 884 353 1716 
Q 353 2575 817 3079 
Q 1281 3584 2069 3584 
Q 2775 3584 3186 3129 
Q 3597 2675 3597 1894 
z
M 3022 2063 
Q 3016 2534 2758 2815 
Q 2500 3097 2075 3097 
Q 1594 3097 1305 2825 
Q 1016 2553 972 2059 
L 3022 2063 
z
" transform="scale(0.015625)"/>
      <path id="DejaVuSans-67" d="M 2906 1791 
Q 2906 2416 2648 2759 
Q 2391 3103 1925 3103 
Q 1463 3103 1205 2759 
Q 947 2416 947 1791 
Q 947 1169 1205 825 
Q 1463 481 1925 481 
Q 2391 481 2648 825 
Q 2906 1169 2906 1791 
z
M 3481 434 
Q 3481 -459 3084 -895 
Q 2688 -1331 1869 -1331 
Q 1566 -1331 1297 -1286 
Q 1028 -1241 775 -1147 
L 775 -588 
Q 1028 -725 1275 -790 
Q 1522 -856 1778 -856 
Q 2344 -856 2625 -561 
Q 2906 -266 2906 331 
L 2906 616 
Q 2728 306 2450 153 
Q 2172 0 1784 0 
Q 1141 0 747 490 
Q 353 981 353 1791 
Q 353 2603 747 3093 
Q 1141 3584 1784 3584 
Q 2172 3584 2450 3431 
Q 2728 3278 2906 2969 
L 2906 3500 
L 3481 3500 
L 3481 434 
z
" transform="scale(0.015625)"/>
      <path id="DejaVuSans-6e" d="M 3513 2113 
L 3513 0 
L 2938 0 
L 2938 2094 
Q 2938 2591 2744 2837 
Q 2550 3084 2163 3084 
Q 1697 3084 1428 2787 
Q 1159 2491 1159 1978 
L 1159 0 
L 581 0 
L 581 3500 
L 1159 3500 
L 1159 2956 
Q 1366 3272 1645 3428 
Q 1925 3584 2291 3584 
Q 2894 3584 3203 3211 
Q 3513 2838 3513 2113 
z
" transform="scale(0.015625)"/>
      <path id="DejaVuSans-63" d="M 3122 3366 
L 3122 2828 
Q 2878 2963 2633 3030 
Q 2388 3097 2138 3097 
Q 1578 3097 1268 2742 
Q 959 2388 959 1747 
Q 959 1106 1268 751 
Q 1578 397 2138 397 
Q 2388 397 2633 464 
Q 2878 531 3122 666 
L 3122 134 
Q 2881 22 2623 -34 
Q 2366 -91 2075 -91 
Q 1284 -91 818 406 
Q 353 903 353 1747 
Q 353 2603 823 3093 
Q 1294 3584 2113 3584 
Q 2378 3584 2631 3529 
Q 2884 3475 3122 3366 
z
" transform="scale(0.015625)"/>
      <path id="DejaVuSans-61" d="M 2194 1759 
Q 1497 1759 1228 1600 
Q 959 1441 959 1056 
Q 959 750 1161 570 
Q 1363 391 1709 391 
Q 2188 391 2477 730 
Q 2766 1069 2766 1631 
L 2766 1759 
L 2194 1759 
z
M 3341 1997 
L 3341 0 
L 2766 0 
L 2766 531 
Q 2569 213 2275 61 
Q 1981 -91 1556 -91 
Q 1019 -91 701 211 
Q 384 513 384 1019 
Q 384 1609 779 1909 
Q 1175 2209 1959 2209 
L 2766 2209 
L 2766 2266 
Q 2766 2663 2505 2880 
Q 2244 3097 1772 3097 
Q 1472 3097 1187 3025 
Q 903 2953 641 2809 
L 641 3341 
Q 956 3463 1253 3523 
Q 1550 3584 1831 3584 
Q 2591 3584 2966 3190 
Q 3341 2797 3341 1997 
z
" transform="scale(0.015625)"/>
      <path id="DejaVuSans-68" d="M 3513 2113 
L 3513 0 
L 2938 0 
L 2938 2094 
Q 2938 2591 2744 2837 
Q 2550 3084 2163 3084 
Q 1697 3084 1428 2787 
Q 1159 2491 1159 1978 
L 1159 0 
L 581 0 
L 581 4863 
L 1159 4863 
L 1159 2956 
Q 1366 3272 1645 3428 
Q 1925 3584 2291 3584 
Q 2894 3584 3203 3211 
Q 3513 2838 3513 2113 
z
" transform="scale(0.015625)"/>
      <path id="DejaVuSans-72" d="M 2631 2963 
Q 2534 3019 2420 3045 
Q 2306 3072 2169 3072 
Q 1681 3072 1420 2755 
Q 1159 2438 1159 1844 
L 1159 0 
L 581 0 
L 581 3500 
L 1159 3500 
L 1159 2956 
Q 1341 3275 1631 3429 
Q 1922 3584 2338 3584 
Q 2397 3584 2469 3576 
Q 2541 3569 2628 3553 
L 2631 2963 
z
" transform="scale(0.015625)"/>
      <path id="DejaVuSans-28" d="M 1984 4856 
Q 1566 4138 1362 3434 
Q 1159 2731 1159 2009 
Q 1159 1288 1364 580 
Q 1569 -128 1984 -844 
L 1484 -844 
Q 1016 -109 783 600 
Q 550 1309 550 2009 
Q 550 2706 781 3412 
Q 1013 4119 1484 4856 
L 1984 4856 
z
" transform="scale(0.015625)"/>
      <path id="DejaVuSans-76" d="M 191 3500 
L 800 3500 
L 1894 563 
L 2988 3500 
L 3597 3500 
L 2284 0 
L 1503 0 
L 191 3500 
z
" transform="scale(0.015625)"/>
      <path id="DejaVuSans-79" d="M 2059 -325 
Q 1816 -950 1584 -1140 
Q 1353 -1331 966 -1331 
L 506 -1331 
L 506 -850 
L 844 -850 
Q 1081 -850 1212 -737 
Q 1344 -625 1503 -206 
L 1606 56 
L 191 3500 
L 800 3500 
L 1894 763 
L 2988 3500 
L 3597 3500 
L 2059 -325 
z
" transform="scale(0.015625)"/>
      <path id="DejaVuSans-2b" d="M 2944 4013 
L 2944 2272 
L 4684 2272 
L 4684 1741 
L 2944 1741 
L 2944 0 
L 2419 0 
L 2419 1741 
L 678 1741 
L 678 2272 
L 2419 2272 
L 2419 4013 
L 2944 4013 
z
" transform="scale(0.015625)"/>
      <path id="DejaVuSans-29" d="M 513 4856 
L 1013 4856 
Q 1481 4119 1714 3412 
Q 1947 2706 1947 2009 
Q 1947 1309 1714 600 
Q 1481 -109 1013 -844 
L 513 -844 
Q 928 -128 1133 580 
Q 1338 1288 1338 2009 
Q 1338 2731 1133 3434 
Q 928 4138 513 4856 
z
" transform="scale(0.015625)"/>
      <path id="DejaVuSans-6f" d="M 1959 3097 
Q 1497 3097 1228 2736 
Q 959 2375 959 1747 
Q 959 1119 1226 758 
Q 1494 397 1959 397 
Q 2419 397 2687 759 
Q 2956 1122 2956 1747 
Q 2956 2369 2687 2733 
Q 2419 3097 1959 3097 
z
M 1959 3584 
Q 2709 3584 3137 3096 
Q 3566 2609 3566 1747 
Q 3566 888 3137 398 
Q 2709 -91 1959 -91 
Q 1206 -91 779 398 
Q 353 888 353 1747 
Q 353 2609 779 3096 
Q 1206 3584 1959 3584 
z
" transform="scale(0.015625)"/>
      <path id="DejaVuSans-66" d="M 2375 4863 
L 2375 4384 
L 1825 4384 
Q 1516 4384 1395 4259 
Q 1275 4134 1275 3809 
L 1275 3500 
L 2222 3500 
L 2222 3053 
L 1275 3053 
L 1275 0 
L 697 0 
L 697 3053 
L 147 3053 
L 147 3500 
L 697 3500 
L 697 3744 
Q 697 4328 969 4595 
Q 1241 4863 1831 4863 
L 2375 4863 
z
" transform="scale(0.015625)"/>
      <path id="DejaVuSans-64" d="M 2906 2969 
L 2906 4863 
L 3481 4863 
L 3481 0 
L 2906 0 
L 2906 525 
Q 2725 213 2448 61 
Q 2172 -91 1784 -91 
Q 1150 -91 751 415 
Q 353 922 353 1747 
Q 353 2572 751 3078 
Q 1150 3584 1784 3584 
Q 2172 3584 2448 3432 
Q 2725 3281 2906 2969 
z
M 947 1747 
Q 947 1113 1208 752 
Q 1469 391 1925 391 
Q 2381 391 2643 752 
Q 2906 1113 2906 1747 
Q 2906 2381 2643 2742 
Q 2381 3103 1925 3103 
Q 1469 3103 1208 2742 
Q 947 2381 947 1747 
z
" transform="scale(0.015625)"/>
     </defs>
     <use xlink:href="#DejaVuSans-4d"/>
     <use xlink:href="#DejaVuSans-75" x="86.279297"/>
     <use xlink:href="#DejaVuSans-6c" x="149.658203"/>
     <use xlink:href="#DejaVuSans-74" x="177.441406"/>
     <use xlink:href="#DejaVuSans-69" x="216.650391"/>
     <use xlink:href="#DejaVuSans-2d" x="244.433594"/>
     <use xlink:href="#DejaVuSans-73" x="280.517578"/>
     <use xlink:href="#DejaVuSans-65" x="332.617188"/>
     <use xlink:href="#DejaVuSans-67" x="394.140625"/>
     <use xlink:href="#DejaVuSans-6d" x="457.617188"/>
     <use xlink:href="#DejaVuSans-65" x="555.029297"/>
     <use xlink:href="#DejaVuSans-6e" x="616.552734"/>
     <use xlink:href="#DejaVuSans-74" x="679.931641"/>
     <use xlink:href="#DejaVuSans-20" x="719.140625"/>
     <use xlink:href="#DejaVuSans-63" x="750.927734"/>
     <use xlink:href="#DejaVuSans-61" x="805.908203"/>
     <use xlink:href="#DejaVuSans-74" x="867.1875"/>
     <use xlink:href="#DejaVuSans-68" x="906.396484"/>
     <use xlink:href="#DejaVuSans-65" x="969.775391"/>
     <use xlink:href="#DejaVuSans-74" x="1031.298828"/>
     <use xlink:href="#DejaVuSans-65" x="1070.507812"/>
     <use xlink:href="#DejaVuSans-72" x="1132.03125"/>
     <use xlink:href="#DejaVuSans-20" x="1173.144531"/>
     <use xlink:href="#DejaVuSans-28" x="1204.931641"/>
     <use xlink:href="#DejaVuSans-67" x="1243.945312"/>
     <use xlink:href="#DejaVuSans-72" x="1307.421875"/>
     <use xlink:href="#DejaVuSans-61" x="1348.535156"/>
     <use xlink:href="#DejaVuSans-76" x="1409.814453"/>
     <use xlink:href="#DejaVuSans-69" x="1468.994141"/>
     <use xlink:href="#DejaVuSans-74" x="1496.777344"/>
     <use xlink:href="#DejaVuSans-79" x="1535.986328"/>
     <use xlink:href="#DejaVuSans-20" x="1595.166016"/>
     <use xlink:href="#DejaVuSans-2b" x="1626.953125"/>
     <use xlink:href="#DejaVuSans-20" x="1710.742188"/>
     <use xlink:href="#DejaVuSans-6d" x="1742.529297"/>
     <use xlink:href="#DejaVuSans-61" x="1839.941406"/>
     <use xlink:href="#DejaVuSans-67" x="1901.220703"/>
     <use xlink:href="#DejaVuSans-6e" x="1964.697266"/>
     <use xlink:href="#DejaVuSans-65" x="2028.076172"/>
     <use xlink:href="#DejaVuSans-74" x="2089.599609"/>
     <use xlink:href="#DejaVuSans-69" x="2128.808594"/>
     <use xlink:href="#DejaVuSans-63" x="2156.591797"/>
     <use xlink:href="#DejaVuSans-29" x="2211.572266"/>
     <use xlink:href="#DejaVuSans-20" x="2250.585938"/>
     <use xlink:href="#DejaVuSans-63" x="2282.373047"/>
     <use xlink:href="#DejaVuSans-6f" x="2337.353516"/>
     <use xlink:href="#DejaVuSans-6e" x="2398.535156"/>
     <use xlink:href="#DejaVuSans-66" x="2461.914062"/>
     <use xlink:href="#DejaVuSans-69" x="2497.119141"/>
     <use xlink:href="#DejaVuSans-67" x="2524.902344"/>
     <use xlink:href="#DejaVuSans-75" x="2588.378906"/>
     <use xlink:href="#DejaVuSans-72" x="2651.757812"/>
     <use xlink:href="#DejaVuSans-61" x="2692.871094"/>
     <use xlink:href="#DejaVuSans-74" x="2754.150391"/>
     <use xlink:href="#DejaVuSans-69" x="2793.359375"/>
     <use xlink:href="#DejaVuSans-6f" x="2821.142578"/>
     <use xlink:href="#DejaVuSans-6e" x="2882.324219"/>
     <use xlink:href="#DejaVuSans-20" x="2945.703125"/>
     <use xlink:href="#DejaVuSans-28" x="2977.490234"/>
     <use xlink:href="#DejaVuSans-6e" x="3016.503906"/>
     <use xlink:href="#DejaVuSans-6f" x="3079.882812"/>
     <use xlink:href="#DejaVuSans-6e" x="3141.064453"/>
     <use xlink:href="#DejaVuSans-64" x="3204.443359"/>
     <use xlink:href="#DejaVuSans-69" x="3267.919922"/>
     <use xlink:href="#DejaVuSans-6d" x="3295.703125"/>
     <use xlink:href="#DejaVuSans-20" x="3393.115234"/>
     <use xlink:href="#DejaVuSans-73" x="3424.902344"/>
     <use xlink:href="#DejaVuSans-6f" x="3477.001953"/>
     <use xlink:href="#DejaVuSans-6c" x="3538.183594"/>
     <use xlink:href="#DejaVuSans-76" x="3565.966797"/>
     <use xlink:href="#DejaVuSans-65" x="3625.146484"/>
     <use xlink:href="#DejaVuSans-29" x="3686.669922"/>
    </g>
   </g>
  </g>
 </g>
 <defs>
  <clipPath id="p0dd6960c8b">
   <rect x="76.44" y="26.88" width="307.92" height="307.92"/>
  </clipPath>
 </defs>
</svg>
